<?xml version="1.0" encoding="UTF-8" standalone="no"?>
<svg width="162px" height="55px" viewBox="0 0 162 55" version="1.1" xmlns="http://www.w3.org/2000/svg" xmlns:xlink="http://www.w3.org/1999/xlink" xmlns:sketch="http://www.bohemiancoding.com/sketch/ns">
    <!-- Generator: Sketch 3.2.2 (9983) - http://www.bohemiancoding.com/sketch -->
    <title>Play Store@1x</title>
    <desc>Created with Sketch.</desc>
    <defs>
        <linearGradient x1="58.9170878%" y1="9.59026547%" x2="90.8103723%" y2="60.8514694%" id="linearGradient-1">
            <stop stop-color="#FF177B" offset="0%"></stop>
            <stop stop-color="#FFEC73" offset="100%"></stop>
        </linearGradient>
        <linearGradient x1="37.1029741%" y1="-44.0352456%" x2="0%" y2="101.060094%" id="linearGradient-2">
            <stop stop-color="#064AA2" offset="0%"></stop>
            <stop stop-color="#63FFD4" offset="100%"></stop>
        </linearGradient>
        <path id="path-3" d="M15.2132136,13.8684 L0.5472379,0 C0.205080965,0.0792996043 0,0.334657595 0,0.7644 L0,13.8684 L0,27.3 C0,27.6646043 0.147313331,27.8815349 0.32834274,27.9552 L15.2132136,13.8684 Z"></path>
        <path id="path-5" d="M0.605723464,13.9541436 L9.0826659,9.30799888 C11.1701348,8.15391909 12.8268022,7.23800456 12.8268022,7.23800456 L18.9913658,3.92515812 L14.887282,-0.0537302382 L0.00258477461,14.0348227 C0.168488473,14.0880588 0.460898648,14.0589598 0.689025325,13.9466219"></path>
        <linearGradient x1="78.6453125%" y1="50%" x2="2.49516972%" y2="100%" id="linearGradient-7">
            <stop stop-color="#FF4521" offset="0%"></stop>
            <stop stop-color="#8A33DB" offset="100%"></stop>
        </linearGradient>
        <linearGradient x1="0%" y1="-24.1863374%" x2="64.2244373%" y2="100%" id="linearGradient-8">
            <stop stop-color="#00A3B5" offset="0%"></stop>
            <stop stop-color="#D6FFA1" offset="100%"></stop>
        </linearGradient>
        <path id="path-9" d="M0.780254406,0.125238669 C0.497921985,-0.025629549 0.217403022,-0.0687875299 -0.00951811863,-0.00779053876 L14.6686339,13.8807836 L18.7294328,10.0466201 L12.6083612,6.66366335 C12.6083612,6.66366335 6.83905276,3.47442983 3.35551043,1.54870757 L0.780254406,0.125238669 Z"></path>
    </defs>
    <g id="Page-2" stroke="none" stroke-width="1" fill="none" fill-rule="evenodd" sketch:type="MSPage">
        <g id="Landing-Page" sketch:type="MSArtboardGroup" transform="translate(-552.000000, -3777.000000)">
            <g id="7th_section" sketch:type="MSLayerGroup" transform="translate(-115.000000, 3592.000000)">
                <g id="download" transform="translate(667.000000, 184.000000)">
                    <g id="Play-Store" transform="translate(0.000000, 1.400000)">
                        <rect id="background" fill="#000000" sketch:type="MSShapeGroup" x="0" y="0" width="161.654076" height="54.6" rx="9"></rect>
                        <g id="icon" transform="translate(6.566855, 19.546800)">
                            <path d="M13.1533284,6.66366335 C13.1533284,6.66366335 2.00002963,0.498197488 1.34497906,0.13597093 C0.688838545,-0.226255628 0.0359678354,-0.00652660465 0.0359678354,0.750559535 L0.0359678354,13.9125456 L0.0359678354,27.3421224 C0.0359678354,27.9088493 0.502459761,28.1546847 1.07249546,27.8403199 C1.64144122,27.5259551 13.1533284,21.1614278 13.1533284,21.1614278 C13.1533284,21.1614278 14.7171982,20.2973956 15.4991332,19.8653795 C16.7575555,19.170106 19.2744,17.7795588 19.2744,17.7795588 C19.2744,17.7795588 24.4679375,14.9078528 25.1589559,14.5271342 C25.8488844,14.1453278 25.7823984,13.6221117 25.2003734,13.3208001 C24.6172585,13.0205763 19.2744,10.0466201 19.2744,10.0466201 L13.1533284,6.66366335 Z" id="orange" fill="url(#linearGradient-1)" sketch:type="MSShapeGroup"></path>
                            <g id="blue">
                                <mask id="mask-4" sketch:name="Clip 2" fill="white">
                                    <use xlink:href="#path-3"></use>
                                </mask>
                                <use id="Clip-2" fill="url(#linearGradient-2)" sketch:type="MSShapeGroup" xlink:href="#path-3"></use>
                                <path d="M19.2627741,10.0464 L13.1337096,6.6612 C13.1122449,6.71045925 1.96329583,0.533669377 1.31337096,0.2184 C0.652616093,-0.19211433 0,0.0280182658 0,0.7644 L0,13.9776 C0,13.9726554 0,26.8580406 0,27.4092 C0,27.9946658 0.466309996,28.2409528 0.985028219,27.9552 C1.60484725,27.6110684 13.1122449,21.2348515 13.1337096,21.1848 L19.2627741,17.7996 C19.2309293,17.8467711 24.4224413,14.9697907 25.0634958,14.6328 C25.8028496,14.2058652 25.7363896,13.681688 25.1729434,13.4316 C24.5717041,13.0790478 19.2309293,10.0996294 19.2627741,10.0464" id="Fill-1" sketch:type="MSShapeGroup" mask="url(#mask-4)"></path>
                            </g>
                            <g id="red" transform="translate(0.326526, 13.923423)">
                                <mask id="mask-6" sketch:name="Clip 8" fill="white">
                                    <use xlink:href="#path-5"></use>
                                </mask>
                                <g id="Clip-8"></g>
                                <path d="M12.8071834,-7.26222326 C12.7857187,-7.21296401 1.63676964,-13.3897539 0.986844777,-13.7050233 C0.326089911,-14.1155376 -0.326526182,-13.895405 -0.326526182,-13.1590233 L-0.326526182,0.0541767442 C-0.326526182,0.04923213 -0.326526182,12.9346174 -0.326526182,13.4857767 C-0.326526182,14.0712426 0.139783814,14.3175296 0.658502037,14.0317767 C1.27832107,13.6876452 12.7857187,7.31142827 12.8071834,7.26137674 L18.9362479,3.87617674 C18.9044031,3.92334787 24.0959151,1.0463674 24.7369696,0.709376744 C25.4763235,0.28244191 25.4098634,-0.241735212 24.8464172,-0.491823256 C24.2451779,-0.844375438 18.9044031,-3.82379384 18.9362479,-3.87702326 L12.8071834,-7.26222326 Z" id="Fill-7" fill="url(#linearGradient-7)" sketch:type="MSShapeGroup" mask="url(#mask-6)"></path>
                            </g>
                            <g id="green" transform="translate(0.544967, 0.000000)">
                                <mask id="mask-10" sketch:name="Clip 5" fill="white">
                                    <use xlink:href="#path-9"></use>
                                </mask>
                                <use id="Clip-5" fill="url(#linearGradient-8)" sketch:type="MSShapeGroup" xlink:href="#path-9"></use>
                                <path d="M18.7178069,10.0464 L12.5887424,6.6612 C12.5672777,6.71045925 1.41832862,0.533669377 0.768403756,0.2184 C0.10764889,-0.19211433 -0.544967203,0.0280182658 -0.544967203,0.7644 L-0.544967203,13.9776 C-0.544967203,13.9726554 -0.544967203,26.8580406 -0.544967203,27.4092 C-0.544967203,27.9946658 -0.0786572065,28.2409528 0.440061016,27.9552 C1.05988005,27.6110684 12.5672777,21.2348515 12.5887424,21.1848 L18.7178069,17.7996 C18.6859621,17.8467711 23.8774741,14.9697907 24.5185286,14.6328 C25.2578824,14.2058652 25.1914224,13.681688 24.6279762,13.4316 C24.0267369,13.0790478 18.6859621,10.0996294 18.7178069,10.0464" id="Fill-4" sketch:type="MSShapeGroup" mask="url(#mask-10)"></path>
                            </g>
                        </g>
                        <g id="Google-play" transform="translate(37.978310, 21.949200)" fill="#FFFFFF" sketch:type="MSShapeGroup">
                            <path d="M72.7405329,16.1473823 L71.5285435,17.2951362 C71.2484493,17.4496271 70.969857,17.6289872 70.6920155,17.7563479 C69.8502311,18.1399374 68.9941791,18.2364 68.2334943,18.2364 C67.4239996,18.2364 66.1549401,18.183647 64.8603492,17.2438905 C63.0618891,15.9725438 62.275673,13.7870635 62.275673,11.8826812 C62.275673,7.93977327 65.4738531,6.006 68.0825589,6.006 C68.9941791,6.006 69.9305798,6.23509863 70.6920155,6.71816514 C71.9580713,7.55844464 72.2854737,8.65043118 72.467197,9.23523557 L66.5101266,11.6505681 L64.5592292,11.8027981 C65.1907552,15.0358018 67.3699331,16.9160684 69.7781425,16.9160684 C70.9811208,16.9160684 71.873968,16.5219284 72.6932248,16.1157305 C72.6932248,16.1157305 72.8576768,16.0298185 72.7405329,16.1473823 L72.7405329,16.1473823 Z M69.1007689,9.66174692 C69.5788597,9.48421473 69.827556,9.33096044 69.827556,8.97437869 C69.827556,7.95167189 68.6954311,6.7704 67.3443049,6.7704 C66.3435808,6.7704 64.4646246,7.56701881 64.4646246,10.3331828 C64.4646246,10.7648743 64.5151062,11.2246371 64.540347,11.6844 L69.1007689,9.66174692 L69.1007689,9.66174692 Z" id="Fill-1"></path>
                            <path d="M60.3084754,16.0090629 C60.3084754,16.9946408 60.4836161,17.148003 61.3136631,17.2254359 C61.7462755,17.2765567 62.177391,17.2991099 62.6040157,17.3502307 L61.6699322,17.9088 L57.2188144,17.9088 C57.8026166,17.148003 57.9029109,17.0720737 57.9029109,16.5653769 L57.9029109,15.9992898 L57.8931808,0.915662766 L55.9277133,0.915662766 L57.8198313,0 L61.4319205,0 C60.6490267,0.455576056 60.4147574,0.732981278 60.3144631,1.62082834 L60.3084754,16.0090629" id="Fill-2"></path>
                            <path d="M53.4026607,7.25063539 C53.9817699,7.72944813 55.1900533,8.74570374 55.1900533,10.6729814 C55.1900533,12.5514006 54.1371954,13.4368659 53.0753706,14.2749761 C52.749575,14.6049585 52.3684838,14.9627527 52.3684838,15.5159806 C52.3684838,16.0774768 52.749575,16.3819025 53.0238112,16.6089064 L53.934694,17.3162263 C55.0421002,18.2565634 56.0516183,19.118727 56.0516183,20.8701143 C56.0516183,23.2559096 53.7561042,25.662 49.4183894,25.662 C45.764397,25.662 43.9979271,23.9113644 43.9979271,22.0344485 C43.9979271,21.1211715 44.4500059,19.8275503 45.9414924,18.9413333 C47.5047136,17.9799494 49.6223852,17.8514142 50.7566921,17.7762473 C50.4025014,17.3162263 49.9982458,16.8344069 49.9982458,16.0481618 C49.9982458,15.6182075 50.1267707,15.3618886 50.2508121,15.0597179 C49.9750814,15.0860263 49.697109,15.1130863 49.4445427,15.1130863 C46.770179,15.1130863 45.2585171,13.1061319 45.2585171,11.1284924 C45.2585171,9.96190313 45.7875614,8.66753023 46.874045,7.72944813 C48.3117303,6.53880546 50.0258936,6.3336 51.3881079,6.3336 L56.5843988,6.3336 L54.9688709,7.25063539 L53.4026607,7.25063539 L53.4026607,7.25063539 Z M51.6286241,18.4823484 C51.4199636,18.4548 51.2949179,18.4548 51.04332,18.4548 C50.8128142,18.4548 49.439572,18.5053053 48.3759308,18.8680255 C47.8132254,19.0769339 46.1868787,19.6944764 46.1868787,21.5287384 C46.1868787,23.3591742 47.9427907,24.6792 50.6591437,24.6792 C53.0997936,24.6792 54.3954472,23.4907941 54.3954472,21.8906933 C54.3954472,20.5737284 53.5570388,19.8788974 51.6286241,18.4823484 L51.6286241,18.4823484 Z M52.3416868,13.597069 C52.9220343,13.0133293 52.9726287,12.2070341 52.9726287,11.7491843 C52.9726287,9.93052402 51.8960097,7.098 49.808991,7.098 C49.1579601,7.098 48.4526148,7.42696245 48.0523238,7.93576769 C47.6274797,8.46255721 47.5002497,9.14595983 47.5002497,9.80313537 C47.5002497,11.496655 48.4808881,14.3052 50.6378462,14.3052 C51.2673,14.3052 51.944372,13.9972192 52.3416868,13.597069 L52.3416868,13.597069 Z" id="Fill-3"></path>
                            <path d="M37.6868364,18.2364 C33.6700685,18.2364 31.520903,15.0749184 31.520903,12.2124039 C31.520903,8.86775768 34.2227111,6.006 38.0657485,6.006 C41.7807346,6.006 44.1073747,8.94571617 44.1073747,12.0322668 C44.1073747,15.0469139 41.8076927,18.2364 37.6868364,18.2364 L37.6868364,18.2364 Z M40.8281552,16.1687411 C41.4413021,15.3489859 41.5900804,14.3258101 41.5900804,13.3284413 C41.5900804,11.0725965 40.5260902,6.7704 37.3814581,6.7704 C36.5451438,6.7704 35.7028182,7.10057916 35.0956825,7.63949228 C34.1053301,8.53590972 33.9287498,9.66231404 33.9287498,10.7674654 C33.9287498,13.29808 35.1670661,17.472 38.2403146,17.472 C39.2321699,17.472 40.2443131,16.9869782 40.8281552,16.1687411 L40.8281552,16.1687411 Z" id="Fill-4"></path>
                            <path d="M24.2243564,18.2364 C20.2051659,18.2364 18.0588507,15.0749184 18.0588507,12.2124039 C18.0588507,8.86775768 20.7625336,6.006 24.6056739,6.006 C28.3199603,6.006 30.6453224,8.94571617 30.6453224,12.0322668 C30.6453224,15.0469139 28.3476789,18.2364 24.2243564,18.2364 L24.2243564,18.2364 Z M27.3672326,16.1687411 C27.9761697,15.3489859 28.128028,14.3258101 28.128028,13.3284413 C28.128028,11.0725965 27.0605087,6.7704 23.9173409,6.7704 C23.0776091,6.7704 22.2438916,7.10057916 21.6349545,7.63949228 C20.6426126,8.53590972 20.4666974,9.66231404 20.4666974,10.7674654 C20.4666974,13.29808 21.7108837,17.472 24.7803776,17.472 C25.7704642,17.472 26.7816005,16.9869782 27.3672326,16.1687411 L27.3672326,16.1687411 Z" id="Fill-5"></path>
                            <path d="M16.3925096,17.4807807 L12.9902197,18.2631407 C11.6117057,18.4813859 10.3738256,18.6732 9.06299644,18.6732 C2.50057781,18.6732 0,13.822719 0,10.0264606 C0,5.39044897 3.54292393,1.092 9.61049137,1.092 C10.8942467,1.092 12.1291185,1.28154861 13.2541905,1.5896595 C15.0373093,2.09260521 15.8713366,2.71260286 16.3925096,3.07584143 L14.4161131,4.96075511 L13.5828378,5.14803819 L14.1769601,4.19727445 C13.3722629,3.40811788 11.8929737,1.95138772 9.08555804,1.95138772 C5.33205915,1.95138772 2.50057781,4.81651692 2.50057781,8.9994243 C2.50057781,13.4919529 5.7336557,17.7179052 10.9190644,17.7179052 C12.4427248,17.7179052 13.2271165,17.4105495 13.9393112,17.1235835 L13.9393112,13.2721974 L10.3467517,13.466277 L12.2509511,12.4392407 L17.2927176,12.4392407 L16.6760338,13.0350728 C16.50983,13.1770455 16.4872684,13.2253766 16.440641,13.4156804 C16.4158233,13.6331704 16.3925096,14.3249096 16.3925096,14.5680755 L16.3925096,17.4807807" id="Fill-6"></path>
                            <path d="M80.0830584,16.2642233 L80.0830584,22.7136 L78.8022575,22.7136 L78.8022575,6.30239369 L80.0830584,6.30239369 L80.0830584,8.17154988 C80.9174172,6.96346419 82.4420729,6.006 84.2128345,6.006 C87.3889504,6.006 89.5281204,8.41541811 89.5281204,12.2295172 C89.5281204,16.018104 87.3889504,18.4777964 84.2128345,18.4777964 C82.5411155,18.4777964 81.0434714,17.6156285 80.0830584,16.2642233 L80.0830584,16.2642233 Z M88.2147494,12.3278467 C88.2147494,9.42288631 86.7107561,7.2072 84.0439356,7.2072 C82.3878107,7.2072 80.803986,8.5175032 80.1156285,9.66022711 L80.1156285,14.9689266 C80.803986,16.1139253 82.3878107,17.472 84.0439356,17.472 C86.7107561,17.472 88.2147494,15.2373568 88.2147494,12.3278467 L88.2147494,12.3278467 Z" id="Fill-7"></path>
                            <path d="M91.2792817,1.7472 L92.5926526,1.7472 L92.5926526,18.2364 L91.2792817,18.2364 L91.2792817,1.7472 Z" id="Fill-8"></path>
                            <path d="M106.871542,21.5780397 C107.145429,21.7003765 107.612913,21.7754297 107.909311,21.7754297 C108.692702,21.7754297 109.238225,21.4549524 109.72822,20.3231497 L110.662437,18.205898 L105.616915,6.2244 L107.045629,6.2244 L111.373793,16.6072641 L115.659936,6.2244 L117.108911,6.2244 L110.955084,20.7201812 C110.316514,22.2137406 109.311762,22.932 107.931822,22.932 C107.517615,22.932 106.971342,22.8584478 106.651682,22.7601281 L106.871542,21.5780397" id="Fill-9"></path>
                            <path d="M103.256951,18.2201305 C103.170922,17.8058748 103.106023,17.4406657 103.05848,17.1358218 C103.019239,16.8317324 102.996599,16.520852 102.996599,16.2046896 C102.555133,16.8528602 101.929534,17.3923736 101.130367,17.8171933 C100.330446,18.2450312 99.5705201,18.4548 98.5283581,18.4548 C97.2733867,18.4548 96.2991426,18.1461832 95.6041164,17.519895 C94.9113541,16.8943613 94.5627091,16.0469857 94.5627091,14.97475 C94.5627091,13.9040234 95.0675652,13.0347654 96.074259,12.3699944 C97.0809528,11.7022051 98.3819573,11.3701968 99.9923655,11.3701968 L102.996599,11.3701968 L102.996599,9.88596906 C102.996599,9.03104784 102.705307,8.35873114 102.123477,7.87128268 C101.539384,7.38307965 100.719841,7.13633716 99.657304,7.13633716 C98.6860785,7.13633716 97.8982312,7.36195185 97.29829,7.80110821 C96.7036313,8.24931934 96.404038,8.80467858 96.404038,9.47397702 L95.0856767,9.47397702 L95.0585095,9.40983906 C95.010967,8.50738029 95.4237567,7.71584245 96.3014066,7.0322073 C97.1752832,6.34932671 98.3200766,6.006 99.7289951,6.006 C101.133386,6.006 102.269878,6.34404476 103.126398,7.01862514 C103.982163,7.68641445 104.411555,8.65150205 104.411555,9.91313337 L104.411555,15.8062797 C104.411555,16.2295902 104.43193,16.638564 104.484755,17.0369739 C104.53909,17.4361383 104.625874,17.8345482 104.741334,18.2201305 L103.256951,18.2201305 L103.256951,18.2201305 Z M98.6833339,17.3628 C99.7766315,17.3628 100.562298,17.1170621 101.365306,16.6308954 C102.163036,16.1477625 102.705915,15.5174902 102.990173,14.7544891 L102.990173,12.4488 L99.9741791,12.4488 C98.8220696,12.4488 97.8682616,12.7051562 97.1180332,13.2224194 C96.3662968,13.7381656 95.9855276,14.3623703 95.9855276,15.0882073 C95.9855276,15.773088 96.2268071,16.3206892 96.7063501,16.7355615 C97.187401,17.1549846 97.8448876,17.3628 98.6833339,17.3628 L98.6833339,17.3628 Z" id="Fill-10"></path>
                        </g>
                        <g id="Get-it-on" transform="translate(37.540520, 8.736000)" fill="#FFFFFF" sketch:type="MSShapeGroup">
                            <path d="M0.00464835282,3.85596198 C0.00464835282,1.50378676 1.88723124,-0.00927567568 4.22820837,-0.00927567568 C5.7971531,-0.00927567568 6.82326255,0.685669281 7.46260188,1.53667942 L6.3166163,2.15324186 C5.88234808,1.59266693 5.12162475,1.1566642 4.22820837,1.1566642 C2.63589156,1.1566642 1.45296302,2.27641438 1.45296302,3.85596198 C1.45296302,5.41241473 2.63589156,6.55525976 4.22820837,6.55525976 C5.04924672,6.55525976 5.77302708,6.20813721 6.13491727,5.88340965 L6.13491727,4.72936712 L3.72156211,4.72936712 L3.72156211,3.57532459 L7.53497991,3.57532459 L7.53497991,6.36490223 C6.75088452,7.18301971 5.61620801,7.7316973 4.22820837,7.7316973 C1.88723124,7.7316973 0.00464835282,6.19763955 0.00464835282,3.85596198" id="Fill-1"></path>
                            <path d="M9.36051484,7.61785946 L9.36051484,0.104562162 L14.9512155,0.104562162 L14.9512155,1.26565053 L10.7920094,1.26565053 L10.7920094,3.2022052 L14.8656163,3.2022052 L14.8656163,4.36258988 L10.7920094,4.36258988 L10.7920094,6.45747478 L14.9512155,6.45747478 L14.9512155,7.61785946 L9.36051484,7.61785946" id="Fill-2"></path>
                            <path d="M18.7532686,7.61785946 L18.7532686,1.26565053 L16.3203667,1.26565053 L16.3203667,0.104562162 L22.595643,0.104562162 L22.595643,1.26565053 L20.1627412,1.26565053 L20.1627412,7.61785946 L18.7532686,7.61785946" id="Fill-3"></path>
                            <path d="M27.6158641,0.104562162 L28.9850153,0.104562162 L28.9850153,7.61785946 L27.6158641,7.61785946 L27.6158641,0.104562162 Z" id="Fill-4"></path>
                            <path d="M32.9019167,7.61785946 L32.9019167,1.26565053 L30.4682624,1.26565053 L30.4682624,0.104562162 L36.7435387,0.104562162 L36.7435387,1.26565053 L34.3113894,1.26565053 L34.3113894,7.61785946 L32.9019167,7.61785946" id="Fill-5"></path>
                            <path d="M41.4214719,3.86156124 C41.4214719,1.6286287 43.1434249,-0.00927567568 45.586355,-0.00927567568 C48.0155522,-0.00927567568 49.750475,1.6286287 49.750475,3.86156124 C49.750475,6.09379292 48.0155522,7.7316973 45.586355,7.7316973 C43.1434249,7.7316973 41.4214719,6.09379292 41.4214719,3.86156124 L41.4214719,3.86156124 Z M48.2672279,3.80429189 C48.2672279,2.27214439 47.212159,1.1291027 45.5863525,1.1291027 C43.9484187,1.1291027 42.9047191,2.27214439 42.9047191,3.80429189 C42.9047191,5.32464831 43.9484187,6.47948108 45.5863525,6.47948108 C47.212159,6.47948108 48.2672279,5.32464831 48.2672279,3.80429189 L48.2672279,3.80429189 Z" id="Fill-6"></path>
                            <path d="M56.9468429,7.61785946 L52.7560371,2.2451869 L52.7560371,7.61785946 L51.3478181,7.61785946 L51.3478181,0.104562162 L52.7928976,0.104562162 L56.8986987,5.30905283 L56.8986987,0.104562162 L58.30767,0.104562162 L58.30767,7.61785946 L56.9468429,7.61785946" id="Fill-7"></path>
                        </g>
                    </g>
                </g>
            </g>
        </g>
    </g>
</svg>