<?xml version="1.0" encoding="UTF-8" standalone="no"?>
<svg width="160px" height="54px" viewBox="0 0 160 54" version="1.1" xmlns="http://www.w3.org/2000/svg" xmlns:xlink="http://www.w3.org/1999/xlink" xmlns:sketch="http://www.bohemiancoding.com/sketch/ns">
    <!-- Generator: Sketch 3.2.2 (9983) - http://www.bohemiancoding.com/sketch -->
    <title>App Store@3x</title>
    <desc>Created with Sketch.</desc>
    <defs></defs>
    <g id="Page-2" stroke="none" stroke-width="1" fill="none" fill-rule="evenodd" sketch:type="MSPage">
        <g id="Landing-Page" sketch:type="MSArtboardGroup" transform="translate(-730.000000, -408.000000)">
            <g id="Banner" sketch:type="MSLayerGroup" transform="translate(0.000000, 83.000000)">
                <g id="Download" transform="translate(551.000000, 325.000000)" sketch:type="MSShapeGroup">
                    <g id="App-Store" transform="translate(179.272366, 0.000000)">
                        <rect id="background" fill="#000000" x="0" y="0" width="159.727634" height="54" rx="10"></rect>
                        <g id="icon" transform="translate(14.166771, 9.504000)" fill="#FFFFFF">
                            <path d="M20.8003626,16.2598568 C20.7655609,12.3971967 23.967314,10.5179999 24.113721,10.4305118 C22.3004343,7.79028829 19.4899,7.42954963 18.5022528,7.40078642 C16.1417399,7.15270368 13.8520305,8.81138245 12.649573,8.81138245 C11.4231144,8.81138245 9.57142592,7.42475576 7.57573053,7.46550365 C5.00760779,7.50505307 2.60509296,8.98995408 1.28742998,11.2958052 C-1.43189999,15.9973925 0.596196945,22.9065566 3.20152147,26.7068964 C4.50478376,28.5693147 6.02765654,30.6462585 8.02095181,30.573152 C9.97104502,30.4940532 10.6994798,29.3315399 13.0527923,29.3315399 C15.3845038,29.3315399 16.0685364,30.573152 18.1014336,30.5252133 C20.1943336,30.4940532 21.5119966,28.6568028 22.7696567,26.777606 C24.2757287,24.6467311 24.8805576,22.543421 24.9045588,22.4355589 C24.8565565,22.4199788 20.8411646,20.8895361 20.8003626,16.2598568" id="Fill-2"></path>
                            <path d="M16.9601791,4.90078359 C18.0090292,3.59085881 18.7266635,1.80873791 18.527454,0.000250728775 C17.0093814,0.0673648986 15.1108907,1.04890963 14.0176384,2.33007119 C13.0503922,3.45902741 12.1863509,5.30946095 12.4095616,7.04963549 C14.1148431,7.17667303 15.8657268,6.19033443 16.9601791,4.90078359" id="Fill-3"></path>
                        </g>
                        <g transform="translate(49.745912, 23.652000)" fill="#FFFFFF">
                            <path d="M13.4669713,16.1578938 L10.7416411,16.1578938 L9.24876974,11.473085 L4.05972173,11.473085 L2.63765376,16.1578938 L-0.0156730578,16.1578938 L5.12657272,0.208690729 L8.30192448,0.208690729 L13.4669713,16.1578938 L13.4669713,16.1578938 Z M8.79874823,9.50759865 L7.4486837,5.34412319 C7.30587688,4.91746882 7.03706403,3.91555014 6.64344522,2.33836715 L6.59544292,2.33836715 C6.43703535,3.01669965 6.18382325,4.01861833 5.83700667,5.34412319 L4.50974323,9.50759865 L8.79874823,9.50759865 L8.79874823,9.50759865 Z" id="Fill-4"></path>
                            <path d="M26.6652022,10.2662285 C26.6652022,12.2221271 26.1335767,13.76815 25.0691259,14.9030985 C24.1162803,15.9134065 22.9318237,16.4179612 21.5193562,16.4179612 C19.9940833,16.4179612 18.8972309,15.8750555 18.2311991,14.7856487 L18.2311991,20.8199317 L15.6726768,20.8199317 L15.6726768,8.43736733 C15.6726768,7.20893833 15.6402752,5.94934918 15.5778722,4.65740141 L17.8279798,4.65740141 L17.9707866,6.48146867 L18.0187889,6.48146867 C18.8720297,5.10682666 20.1668916,4.42010488 21.9045746,4.42010488 C23.2630396,4.42010488 24.3970938,4.95581977 25.3043371,6.02844802 C26.2103804,7.10347321 26.6652022,8.51526771 26.6652022,10.2662285 L26.6652022,10.2662285 Z M24.0586776,10.3597089 C24.0586776,9.24034044 23.8066655,8.3175206 23.3002413,7.59124941 C22.7470149,6.83501653 22.0041794,6.45510239 21.0729349,6.45510239 C20.4417047,6.45510239 19.8680773,6.66603264 19.3556528,7.08309926 C18.8420282,7.50136436 18.5060122,8.04906392 18.3488047,8.72859489 C18.2696009,9.0437918 18.229999,9.30146227 18.229999,9.50520171 L18.229999,11.4251464 C18.229999,12.2592796 18.4868113,12.9651769 19.0004358,13.5428381 C19.5140604,14.1181024 20.1812923,14.406933 21.0021315,14.406933 C21.9657775,14.406933 22.7158134,14.0342097 23.252239,13.2947554 C23.7898647,12.5529041 24.0586776,11.5749548 24.0586776,10.3597089 L24.0586776,10.3597089 Z" id="Fill-5"></path>
                            <path d="M39.9102352,10.2662285 C39.9102352,12.2221271 39.3786098,13.76815 38.3141589,14.9030985 C37.3601133,15.9134065 36.1768568,16.4179612 34.7631892,16.4179612 C33.2391164,16.4179612 32.1422639,15.8750555 31.475032,14.7856487 L31.475032,20.8199317 L28.9165098,20.8199317 L28.9165098,8.43736733 C28.9165098,7.20893833 28.8841082,5.94934918 28.8217052,4.65740141 L31.0718128,4.65740141 L31.2146196,6.48146867 L31.2626219,6.48146867 C32.1146626,5.10682666 33.4095245,4.42010488 35.1484076,4.42010488 C36.5056725,4.42010488 37.6409267,4.95581977 38.5493702,6.02844802 C39.4542134,7.10347321 39.9102352,8.51526771 39.9102352,10.2662285 L39.9102352,10.2662285 Z M37.3025106,10.3597089 C37.3025106,9.24034044 37.0492985,8.3175206 36.5428743,7.59124941 C35.9908479,6.83501653 35.2492124,6.45510239 34.3179679,6.45510239 C33.6867378,6.45510239 33.1131103,6.66603264 32.5982857,7.08309926 C32.0858612,7.50136436 31.7498452,8.04906392 31.5926377,8.72859489 C31.5146339,9.0437918 31.4726319,9.30146227 31.4726319,9.50520171 L31.4726319,11.4251464 C31.4726319,12.2592796 31.7306443,12.9651769 32.2418687,13.5428381 C32.7554932,14.116904 33.4227251,14.406933 34.2459645,14.406933 C35.2108106,14.406933 35.9608464,14.0342097 36.496072,13.2947554 C37.0336977,12.5529041 37.3025106,11.5749548 37.3025106,10.3597089 L37.3025106,10.3597089 Z" id="Fill-6"></path>
                            <path d="M54.718943,11.6852138 C54.718943,13.0418788 54.2449203,14.1456672 53.2992751,14.9977774 C52.2600255,15.9277881 50.8091561,16.3939919 48.9490672,16.3939919 C47.2305851,16.3939919 45.8529192,16.0632149 44.8136696,15.4004624 L45.4052978,13.270786 C46.5273515,13.9335385 47.7598104,14.2655139 49.1014745,14.2655139 C50.0663206,14.2655139 50.8163565,14.0473928 51.351582,13.6147461 C51.8892077,13.1797025 52.1592206,12.6008428 52.1592206,11.8769685 C52.1592206,11.2285977 51.93601,10.6844936 51.4943889,10.2422591 C51.0515677,9.80242161 50.3195327,9.39014885 49.2922836,9.01383011 C46.49615,7.97236201 45.0968831,6.44791159 45.0968831,4.4452727 C45.0968831,3.13654639 45.5913067,2.0651166 46.5765538,1.22738795 C47.563001,0.390857761 48.8710635,-0.0274073328 50.4983413,-0.0274073328 C51.9516107,-0.0274073328 53.1624686,0.225469271 54.1237145,0.730024012 L53.4816839,2.81296021 C52.5768406,2.32398554 51.5555918,2.07949821 50.4131372,2.07949821 C49.5106941,2.07949821 48.8014602,2.30121467 48.296236,2.74225064 C47.8702157,3.13654639 47.6530053,3.61713178 47.6530053,4.18760222 C47.6530053,4.81679757 47.899017,5.33932932 48.3898405,5.74800667 C48.8146608,6.12672234 49.5898978,6.53779663 50.7107514,6.97883261 C52.0860171,7.53252451 53.0952654,8.17729992 53.7432964,8.91795273 C54.3949275,9.65860553 54.718943,10.5826238 54.718943,11.6852138" id="Fill-7"></path>
                            <path d="M63.1997483,6.57494912 L60.3796135,6.57494912 L60.3796135,12.1586084 C60.3796135,13.5787921 60.8764373,14.2870863 61.8724849,14.2870863 C62.3297067,14.2870863 62.7089249,14.2487354 63.0089392,14.168438 L63.0797426,16.1087566 C62.5757185,16.296916 61.9120868,16.3915949 61.0912476,16.3915949 C60.0795992,16.3915949 59.2911615,16.0823904 58.7199342,15.4675766 C58.151107,14.8515644 57.8666934,13.8196841 57.8666934,12.3671417 L57.8666934,6.57015525 L56.1878132,6.57015525 L56.1878132,4.65260754 L57.8666934,4.65260754 L57.8666934,2.54690047 L60.3796135,1.78946912 L60.3796135,4.65260754 L63.1997483,4.65260754 L63.1997483,6.57494912" id="Fill-8"></path>
                            <path d="M75.8987553,10.3129687 C75.8987553,12.080708 75.3935311,13.5320519 74.3818828,14.6670005 C73.3246322,15.8343076 71.918165,16.4179612 70.1648812,16.4179612 C68.4728004,16.4179612 67.1275361,15.858277 66.1242881,14.7389085 C65.1210402,13.61954 64.6194162,12.2077455 64.6194162,10.5047235 C64.6194162,8.72260255 65.139041,7.26286936 66.1710903,6.12792081 C67.2055398,4.99297226 68.6000064,4.42370029 70.3532902,4.42370029 C72.044171,4.42370029 73.4002359,4.98578146 74.428685,6.10395147 C75.4103319,7.19096132 75.8987553,8.59196962 75.8987553,10.3129687 L75.8987553,10.3129687 Z M73.2466285,10.3716936 C73.2466285,9.31824081 73.0186176,8.41459645 72.5613958,7.65836358 C72.0249701,6.74513148 71.2557334,6.2897139 70.2620859,6.2897139 C69.2384369,6.2897139 68.4499993,6.74513148 67.9159737,7.65836358 C67.4563518,8.41459645 67.2295409,9.33382089 67.2295409,10.4196323 C67.2295409,11.4742835 67.4563518,12.3803248 67.9159737,13.1329623 C68.4692002,14.0473928 69.2408371,14.5040089 70.2416849,14.5040089 C71.2185316,14.5040089 71.9853682,14.0366066 72.5409948,13.1113899 C73.0102172,12.33718 73.2466285,11.4275433 73.2466285,10.3716936 L73.2466285,10.3716936 Z" id="Fill-9"></path>
                            <path d="M84.2187529,6.90452763 C83.9655408,6.85778741 83.6943279,6.83501653 83.4123144,6.83501653 C82.5122714,6.83501653 81.8162381,7.17178585 81.3266147,7.85251528 C80.9005943,8.45174894 80.6881842,9.20918029 80.6881842,10.1236108 L80.6881842,16.1578938 L78.1296619,16.1578938 L78.1296619,8.27916965 C78.1296619,6.95486326 78.1044607,5.74560974 78.0552583,4.65859988 L80.2837649,4.65859988 L80.3773693,6.85898588 L80.4481727,6.85898588 C80.7193857,6.102753 81.144206,5.49273313 81.7274339,5.03731555 C82.2986612,4.62504279 82.9130905,4.42010488 83.5767222,4.42010488 C83.8131335,4.42010488 84.0267438,4.43808189 84.2163528,4.46684511 L84.2187529,6.90452763" id="Fill-10"></path>
                            <path d="M95.6612998,9.86354344 C95.6612998,10.321358 95.6312984,10.7072644 95.5676954,11.0224613 L87.8933286,11.0224613 C87.9209299,12.1586084 88.2941477,13.0286956 89.0057817,13.6279293 C89.6526126,14.1624457 90.4902527,14.4309024 91.5163017,14.4309024 C92.652756,14.4309024 93.6896056,14.2511323 94.6220502,13.8867982 L95.0228693,15.6605299 C93.9332172,16.1339244 92.6455557,16.371221 91.1622848,16.371221 C89.3765995,16.371221 87.9749325,15.8462923 86.9548837,14.7988319 C85.9384351,13.750173 85.4272107,12.3395769 85.4272107,10.575433 C85.4272107,8.84244929 85.9000333,7.39829617 86.8504787,6.24656908 C87.8441262,5.01694161 89.1869904,4.40212787 90.8766711,4.40212787 C92.5363505,4.40212787 93.7928105,5.01694161 94.6448512,6.24656908 C95.3216836,7.22092301 95.6612998,8.42897806 95.6612998,9.86354344 L95.6612998,9.86354344 Z M93.2215832,9.20079101 C93.2395841,8.4421612 93.0715761,7.79019498 92.7247595,7.23650308 C92.2819383,6.52461349 91.6003057,6.16986717 90.6870621,6.16986717 C89.8494221,6.16986717 89.1689895,6.51622422 88.6505648,7.21133527 C88.2245444,7.7638287 87.9713323,8.42897806 87.8933286,9.19839408 L93.2215832,9.20079101 L93.2215832,9.20079101 Z" id="Fill-11"></path>
                        </g>
                        <g id="Available-on-the" transform="translate(50.719201, 9.936000)" fill="#FFFFFF">
                            <path d="M6.59179969,8.21639089 L5.25133562,8.21639089 L4.51810057,5.91413518 L1.96797869,5.91413518 L1.26834525,8.21639089 L-0.0361170952,8.21639089 L2.4912037,0.377216168 L4.05127826,0.377216168 L6.59179969,8.21639089 L6.59179969,8.21639089 Z M4.29729002,4.94817052 L3.6336583,2.90118834 C3.56405498,2.69145656 3.43564884,2.20368036 3.23763937,1.4246766 L3.21363823,1.4246766 C3.13203433,1.76144592 3.01562876,2.25042059 2.84042039,2.90118834 L2.18878924,4.94817052 L4.29729002,4.94817052 L4.29729002,4.94817052 Z" id="Fill-12"></path>
                            <path d="M12.9113017,2.56441902 L10.7679993,8.21639089 L9.54514084,8.21639089 L7.47144173,2.56441902 L8.82270631,2.56441902 L9.78995254,5.55339651 C9.95316034,6.05315739 10.092367,6.53014738 10.196772,6.98316802 L10.2315736,6.98316802 C10.3251781,6.5768876 10.4643848,6.09989761 10.6383931,5.55339651 L11.5936387,2.56441902 L12.9113017,2.56441902" id="Fill-13"></path>
                            <path d="M17.4739198,8.21639089 L17.3803153,7.56562314 L17.3455137,7.56562314 C16.9614953,8.08935336 16.4022686,8.3446269 15.6918346,8.3446269 C14.6789862,8.3446269 13.9565517,7.63513424 13.9565517,6.68115426 C13.9565517,5.2861383 15.1674096,4.56466098 17.2639098,4.56466098 L17.2639098,4.46039432 C17.2639098,3.71614612 16.8678908,3.34342278 16.0878536,3.34342278 C15.5286268,3.34342278 15.0390034,3.48364346 14.6093829,3.76288634 L14.3537707,2.93714236 C14.8781957,2.61115925 15.5298269,2.44816769 16.2990636,2.44816769 C17.7775343,2.44816769 18.52397,3.22717145 18.52397,4.78637743 L18.52397,6.86811516 C18.52397,7.4385856 18.5479711,7.88082005 18.6055739,8.21758936 L17.4739198,8.21639089 L17.4739198,8.21639089 Z M17.2987114,5.40119116 C15.9006446,5.40119116 15.2022112,5.73915895 15.2022112,6.54093358 C15.2022112,7.13417491 15.5634285,7.424204 16.0638524,7.424204 C16.704683,7.424204 17.2987114,6.9364278 17.2987114,6.27367537 L17.2987114,5.40119116 L17.2987114,5.40119116 Z" id="Fill-14"></path>
                            <path d="M21.3249039,1.63320992 C20.9060838,1.63320992 20.5796682,1.30722681 20.5796682,0.87697704 C20.5796682,0.446727273 20.9168844,0.132728835 21.348905,0.132728835 C21.7797256,0.132728835 22.1289423,0.446727273 22.1169417,0.87697704 C22.1169417,1.33119615 21.7917262,1.63320992 21.3249039,1.63320992 L21.3249039,1.63320992 Z M20.7200749,2.56441902 L21.9777351,2.56441902 L21.9777351,8.21639089 L20.7200749,8.21639089 L20.7200749,2.56441902 Z" id="Fill-15"></path>
                            <path d="M24.2122419,-0.0290642524 L25.469902,-0.0290642524 L25.469902,8.21639089 L24.2122419,8.21639089 L24.2122419,-0.0290642524 Z" id="Fill-16"></path>
                            <path d="M30.8149574,8.21639089 L30.7201529,7.56562314 L30.6865513,7.56562314 C30.3025329,8.08935336 29.7433062,8.3446269 29.0328723,8.3446269 C28.0200239,8.3446269 27.2975893,7.63513424 27.2975893,6.68115426 C27.2975893,5.2861383 28.5084472,4.56466098 30.6049474,4.56466098 L30.6049474,4.46039432 C30.6049474,3.71614612 30.2089285,3.34342278 29.4288912,3.34342278 C28.8696645,3.34342278 28.3800411,3.48364346 27.9504205,3.76288634 L27.6936082,2.93594389 C28.2180333,2.60996078 28.8696645,2.44696923 29.6389012,2.44696923 C31.1173719,2.44696923 31.8650076,3.22597298 31.8650076,4.78517896 L31.8650076,6.86691669 C31.8650076,7.43738714 31.8890088,7.87962158 31.9442114,8.21639089 L30.8149574,8.21639089 L30.8149574,8.21639089 Z M30.6397491,5.40119116 C29.2416822,5.40119116 28.5432489,5.73915895 28.5432489,6.54093358 C28.5432489,7.13417491 28.9044661,7.424204 29.40489,7.424204 C30.0457207,7.424204 30.6397491,6.9364278 30.6397491,6.27367537 L30.6397491,5.40119116 L30.6397491,5.40119116 Z" id="Fill-17"></path>
                            <path d="M36.9592511,8.3446269 C36.1564127,8.3446269 35.5635844,8.00665911 35.178366,7.34390669 L35.1543648,7.34390669 L35.0823614,8.21639089 L34.0119102,8.21639089 C34.0455118,7.76337025 34.0575124,7.25042624 34.0575124,6.69313893 L34.0575124,-0.0290642524 L35.3175726,-0.0290642524 L35.3175726,3.39136147 L35.3403737,3.39136147 C35.7135916,2.7633646 36.3184205,2.44936616 37.14526,2.44936616 C38.5085251,2.44936616 39.4637708,3.61307793 39.4637708,5.31010765 C39.4637708,7.0646638 38.4029201,8.3446269 36.9592511,8.3446269 L36.9592511,8.3446269 Z M36.7036389,3.43570476 C35.9800043,3.43570476 35.3175726,4.06370164 35.3175726,4.93618585 L35.3175726,5.92492138 C35.3175726,6.70392514 35.9128011,7.34390669 36.6808378,7.34390669 C37.6228828,7.34390669 38.1845097,6.5768876 38.1845097,5.35564941 C38.1833096,4.21590699 37.6000817,3.43570476 36.7036389,3.43570476 L36.7036389,3.43570476 Z" id="Fill-18"></path>
                            <path d="M41.3250598,-0.0290642524 L42.5815198,-0.0290642524 L42.5815198,8.21639089 L41.3250598,8.21639089 L41.3250598,-0.0290642524 Z" id="Fill-19"></path>
                            <path d="M49.426647,5.69241872 L45.6512665,5.69241872 C45.6764677,6.76265004 46.3845016,7.36667757 47.4321517,7.36667757 C47.9925784,7.36667757 48.5050029,7.27319711 48.9586246,7.09941935 L49.154234,7.97190356 C48.6190084,8.20440622 47.9901783,8.32065755 47.2569433,8.32065755 C45.4856586,8.32065755 44.4380085,7.20368601 44.4380085,5.47190074 C44.4380085,3.73891699 45.5108598,2.43618302 47.1165366,2.43618302 C48.5590055,2.43618302 49.469849,3.50641434 49.469849,5.12314675 C49.4734492,5.34366473 49.4626487,5.54141184 49.426647,5.69241872 L49.426647,5.69241872 Z M48.2745919,4.79716364 C48.2745919,3.92467943 47.8305707,3.30866723 47.0265323,3.30866723 C46.3040977,3.30866723 45.7352706,3.9366641 45.6512665,4.79716364 L48.2745919,4.79716364 L48.2745919,4.79716364 Z" id="Fill-20"></path>
                            <path d="M57.0494113,8.3446269 C55.3957323,8.3446269 54.3240811,7.11140403 54.3240811,5.43714518 C54.3240811,3.69217677 55.4185334,2.44816769 57.1442158,2.44816769 C58.7726937,2.44816769 59.8695461,3.62266566 59.8695461,5.3448632 C59.8695461,7.11140403 58.7390921,8.3446269 57.0494113,8.3446269 L57.0494113,8.3446269 Z M57.0974136,3.36619366 C56.1889702,3.36619366 55.6069424,4.21470852 55.6069424,5.40119116 C55.6069424,6.56490293 56.2009708,7.41341779 57.085413,7.41341779 C57.9698553,7.41341779 58.5638837,6.50617803 58.5638837,5.37722182 C58.5638837,4.22669319 57.9818559,3.36619366 57.0974136,3.36619366 L57.0974136,3.36619366 Z" id="Fill-21"></path>
                            <path d="M66.6306692,8.21639089 L65.3754093,8.21639089 L65.3754093,4.9709414 C65.3754093,3.97141965 64.9901908,3.47046032 64.2329547,3.47046032 C63.487719,3.47046032 62.9740945,4.11044186 62.9740945,4.85469007 L62.9740945,8.21639089 L61.7188345,8.21639089 L61.7188345,4.17995297 C61.7188345,3.6801921 61.7044338,3.14447721 61.6708322,2.56322056 L62.7772851,2.56322056 L62.8360879,3.43570476 L62.8720896,3.43570476 C63.2069056,2.83167724 63.8957385,2.44696923 64.6649753,2.44696923 C65.850632,2.44696923 66.6306692,3.35420899 66.6306692,4.83072072 L66.6306692,8.21639089" id="Fill-22"></path>
                            <path d="M74.8594625,3.50641434 L73.4757964,3.50641434 L73.4757964,6.25090449 C73.4757964,6.94961094 73.7194081,7.29836493 74.2078314,7.29836493 C74.428642,7.29836493 74.617051,7.27439558 74.7670581,7.23964003 L74.8018598,8.19362002 C74.5570481,8.28710047 74.2294324,8.33384069 73.8250131,8.33384069 C72.8325657,8.33384069 72.2421374,7.78733959 72.2421374,6.35636962 L72.2421374,3.50641434 L71.417698,3.50641434 L71.417698,2.56441902 L72.2421374,2.56441902 L72.2421374,1.52894326 L73.4757964,1.15621992 L73.4757964,2.56322056 L74.8594625,2.56322056 L74.8594625,3.50641434" id="Fill-23"></path>
                            <path d="M81.5197809,8.21639089 L80.2609207,8.21639089 L80.2609207,4.99491074 C80.2609207,3.98340433 79.8757023,3.47165878 79.1196662,3.47165878 C78.468035,3.47165878 77.8632061,3.91389322 77.8632061,4.80914831 L77.8632061,8.21639089 L76.6043459,8.21639089 L76.6043459,-0.0290642524 L77.8632061,-0.0290642524 L77.8632061,3.36619366 L77.8872073,3.36619366 C78.2820261,2.75018146 78.8544535,2.44696923 79.5876885,2.44696923 C80.7865458,2.44696923 81.5197809,3.37697986 81.5197809,4.85469007 L81.5197809,8.21639089" id="Fill-24"></path>
                            <path d="M87.946088,5.69241872 L84.1719076,5.69241872 C84.1959088,6.76265004 84.9039426,7.36667757 85.9527928,7.36667757 C86.5144196,7.36667757 87.025644,7.27319711 87.4768656,7.09941935 L87.673675,7.97190356 C87.1396495,8.20440622 86.5096194,8.32065755 85.7751843,8.32065755 C84.0050997,8.32065755 82.9574496,7.20368601 82.9574496,5.47190074 C82.9574496,3.73891699 84.0291008,2.43618302 85.6347776,2.43618302 C87.0784466,2.43618302 87.98809,3.50641434 87.98809,5.12314675 C87.9928903,5.34366473 87.9808897,5.54141184 87.946088,5.69241872 L87.946088,5.69241872 Z M86.7928329,4.79716364 C86.7928329,3.92467943 86.3512118,3.30866723 85.5471734,3.30866723 C84.8247388,3.30866723 84.2547116,3.9366641 84.1719076,4.79716364 L86.7928329,4.79716364 L86.7928329,4.79716364 Z" id="Fill-25"></path>
                        </g>
                    </g>
                </g>
            </g>
        </g>
    </g>
</svg>