<?xml version="1.0" encoding="UTF-8" standalone="no"?>
<svg width="156px" height="53px" viewBox="0 0 156 53" version="1.1" xmlns="http://www.w3.org/2000/svg" xmlns:xlink="http://www.w3.org/1999/xlink" xmlns:sketch="http://www.bohemiancoding.com/sketch/ns">
    <!-- Generator: Sketch 3.2.2 (9983) - http://www.bohemiancoding.com/sketch -->
    <title>Play Store</title>
    <desc>Created with Sketch.</desc>
    <defs>
        <linearGradient x1="58.9170878%" y1="9.59026547%" x2="90.8103723%" y2="60.8514694%" id="linearGradient-1">
            <stop stop-color="#FF177B" offset="0%"></stop>
            <stop stop-color="#FFEC73" offset="100%"></stop>
        </linearGradient>
        <linearGradient x1="37.1029741%" y1="-44.0352456%" x2="0%" y2="101.060094%" id="linearGradient-2">
            <stop stop-color="#064AA2" offset="0%"></stop>
            <stop stop-color="#63FFD4" offset="100%"></stop>
        </linearGradient>
        <path id="path-3" d="M14.651362,13.3731 L0.527027409,0 C0.197506952,0.0764674756 0,0.322705538 0,0.7371 L0,13.3731 L0,26.325 C0,26.6765827 0.141872782,26.8857658 0.316216445,26.9568 L14.651362,13.3731 Z"></path>
        <path id="path-5" d="M0.583352995,13.4557813 L8.74722653,8.97557035 C10.7576015,7.8627077 12.3530851,6.9795044 12.3530851,6.9795044 L18.2899801,3.7849739 L14.3374676,-0.0518113012 L0.00248931418,13.533579 C0.162265887,13.5849139 0.443876823,13.5568541 0.663578367,13.4485283"></path>
        <linearGradient x1="78.6453125%" y1="50%" x2="2.49516972%" y2="100%" id="linearGradient-7">
            <stop stop-color="#FF4521" offset="0%"></stop>
            <stop stop-color="#8A33DB" offset="100%"></stop>
        </linearGradient>
        <linearGradient x1="0%" y1="-24.1863374%" x2="64.2244373%" y2="100%" id="linearGradient-8">
            <stop stop-color="#00A3B5" offset="0%"></stop>
            <stop stop-color="#D6FFA1" offset="100%"></stop>
        </linearGradient>
        <path id="path-9" d="M0.751438192,0.120765859 C0.479532821,-0.0247142079 0.209373933,-0.0663308324 -0.0091665972,-0.00751230523 L14.1268945,13.3850414 L18.0377208,9.68781223 L12.1427115,6.42567537 C12.1427115,6.42567537 6.5864741,3.35034305 3.23158532,1.49339658 L0.751438192,0.120765859 Z"></path>
    </defs>
    <g id="Page-2" stroke="none" stroke-width="1" fill="none" fill-rule="evenodd" sketch:type="MSPage">
        <g id="Landing-Page" sketch:type="MSArtboardGroup" transform="translate(-551.000000, -409.000000)">
            <g id="Banner" sketch:type="MSLayerGroup" transform="translate(0.000000, 83.000000)">
                <g id="Download" transform="translate(551.000000, 325.000000)">
                    <g id="Play-Store" transform="translate(0.000000, 1.350000)">
                        <rect id="background" fill="#000000" sketch:type="MSShapeGroup" x="0" y="0" width="155.683897" height="52.65" rx="9"></rect>
                        <g id="icon" transform="translate(6.324329, 18.848700)">
                            <path d="M12.6675521,6.42567537 C12.6675521,6.42567537 1.9261649,0.480404721 1.29530653,0.131114826 C0.663398485,-0.21817507 0.0346394778,-0.00629351163 0.0346394778,0.723753837 L0.0346394778,13.415669 L0.0346394778,26.365618 C0.0346394778,26.9121046 0.483903009,27.1491602 1.03288625,26.8460228 C1.58081981,26.5428853 12.6675521,20.4056625 12.6675521,20.4056625 C12.6675521,20.4056625 14.1736654,19.5724886 14.926722,19.1559017 C16.1386685,18.4854593 18.5625614,17.1445746 18.5625614,17.1445746 C18.5625614,17.1445746 23.5642921,14.3754295 24.2297899,14.008308 C24.8942381,13.6401375 24.8302075,13.1356077 24.2696778,12.8450572 C23.7080984,12.5555557 18.5625614,9.68781223 18.5625614,9.68781223 L12.6675521,6.42567537 Z" id="orange" fill="url(#linearGradient-1)" sketch:type="MSShapeGroup"></path>
                            <g id="blue">
                                <mask id="mask-4" sketch:name="Clip 2" fill="white">
                                    <use xlink:href="#path-3"></use>
                                </mask>
                                <use id="Clip-2" fill="url(#linearGradient-2)" sketch:type="MSShapeGroup" xlink:href="#path-3"></use>
                                <path d="M18.5513648,9.6876 L12.6486578,6.4233 C12.6279858,6.47079999 1.89078774,0.514609757 1.26486578,0.2106 C0.628513794,-0.185253104 0,0.0270176134 0,0.7371 L0,13.4784 C0,13.473632 0,25.8988249 0,26.4303 C0,26.9948563 0.44908832,27.2323474 0.948649336,26.9568 C1.54557733,26.6249589 12.6279858,20.476464 12.6486578,20.4282 L18.5513648,17.1639 C18.5206961,17.2093864 23.5204761,14.4351553 24.1378553,14.1102 C24.8499035,13.6985128 24.7858979,13.1930563 24.2432608,12.9519 C23.6642264,12.611939 18.5206961,9.73892836 18.5513648,9.6876" id="Fill-1" sketch:type="MSShapeGroup" mask="url(#mask-4)"></path>
                            </g>
                            <g id="red" transform="translate(0.314467, 13.426158)">
                                <mask id="mask-6" sketch:name="Clip 8" fill="white">
                                    <use xlink:href="#path-5"></use>
                                </mask>
                                <g id="Clip-8"></g>
                                <path d="M12.3341908,-7.00285814 C12.3135189,-6.95535815 1.57632076,-12.9115484 0.950398805,-13.2155581 C0.314046817,-13.6114112 -0.314466977,-13.3991405 -0.314466977,-12.6890581 L-0.314466977,0.0522418605 C-0.314466977,0.0474738396 -0.314466977,12.4726667 -0.314466977,13.0041419 C-0.314466977,13.5686982 0.134621344,13.8061892 0.634182359,13.5306419 C1.23111035,13.1988007 12.3135189,7.05030583 12.3341908,7.00204186 L18.2368978,3.73774186 C18.2062292,3.7832283 23.2060092,1.00899714 23.8233884,0.68404186 C24.5354365,0.272354699 24.4714309,-0.233101812 23.9287938,-0.47425814 C23.3497594,-0.814219172 18.2062292,-3.68722978 18.2368978,-3.73855814 L12.3341908,-7.00285814 Z" id="Fill-7" fill="url(#linearGradient-7)" sketch:type="MSShapeGroup" mask="url(#mask-6)"></path>
                            </g>
                            <g id="green" transform="translate(0.524841, 0.000000)">
                                <mask id="mask-10" sketch:name="Clip 5" fill="white">
                                    <use xlink:href="#path-9"></use>
                                </mask>
                                <use id="Clip-5" fill="url(#linearGradient-8)" sketch:type="MSShapeGroup" xlink:href="#path-9"></use>
                                <path d="M18.0265242,9.6876 L12.1238172,6.4233 C12.1031453,6.47079999 1.36594717,0.514609757 0.740025208,0.2106 C0.103673221,-0.185253104 -0.524840573,0.0270176134 -0.524840573,0.7371 L-0.524840573,13.4784 C-0.524840573,13.473632 -0.524840573,25.8988249 -0.524840573,26.4303 C-0.524840573,26.9948563 -0.0757522528,27.2323474 0.423808763,26.9568 C1.02073675,26.6249589 12.1031453,20.476464 12.1238172,20.4282 L18.0265242,17.1639 C17.9958556,17.2093864 22.9956356,14.4351553 23.6130148,14.1102 C24.3250629,13.6985128 24.2610573,13.1930563 23.7184202,12.9519 C23.1393858,12.611939 17.9958556,9.73892836 18.0265242,9.6876" id="Fill-4" sketch:type="MSShapeGroup" mask="url(#mask-10)"></path>
                            </g>
                        </g>
                        <g id="Google-play" transform="translate(36.575702, 21.165300)" fill="#FFFFFF" sketch:type="MSShapeGroup">
                            <path d="M70.0540928,15.57069 L68.8868644,16.6774528 C68.6171145,16.8264261 68.3488111,16.9993805 68.0812309,17.1221927 C67.2705351,17.4920825 66.4460986,17.5851 65.7135073,17.5851 C64.9339087,17.5851 63.7117179,17.5342311 62.4649386,16.6280373 C60.7328989,15.4020958 59.9757191,13.2946684 59.9757191,11.4582997 C59.9757191,7.65620994 63.0557847,5.7915 65.5681462,5.7915 C66.4460986,5.7915 67.3479164,6.01241653 68.0812309,6.47823067 C69.3005289,7.28850018 69.6158397,8.34148721 69.7908517,8.90540572 L64.0537867,11.2344764 L62.1749394,11.3812696 C62.7831421,14.4988088 64.881839,16.3119231 67.2011088,16.3119231 C68.359659,16.3119231 69.2195317,15.9318595 70.0085318,15.5401687 C70.0085318,15.5401687 70.1669104,15.457325 70.0540928,15.57069 L70.0540928,15.57069 Z M66.5487519,9.31668453 C67.0091859,9.14549277 67.2486974,8.99771186 67.2486974,8.65386517 C67.2486974,7.6676836 66.1583839,6.5286 64.8571573,6.5286 C63.8933917,6.5286 62.0838288,7.29676813 62.0838288,9.96414053 C62.0838288,10.3804145 62.132446,10.8237572 62.1567547,11.2671 L66.5487519,9.31668453 L66.5487519,9.31668453 Z" id="Fill-1"></path>
                            <path d="M58.0811738,15.4373106 C58.0811738,16.3876893 58.2498462,16.5355743 59.049238,16.6102418 C59.4658733,16.6595368 59.8810669,16.6812846 60.2919356,16.7305796 L59.3923494,17.2692 L55.1056196,17.2692 C55.6678609,16.5355743 55.7644511,16.4623568 55.7644511,15.9737563 L55.7644511,15.4278866 L55.7550804,0.882960524 L53.8622012,0.882960524 L55.6844398,0 L59.163128,0 C58.4091479,0.439305482 58.1835305,0.706803375 58.0869404,1.56294162 L58.0811738,15.4373106" id="Fill-2"></path>
                            <path d="M51.4304034,6.99168413 C51.988125,7.45339641 53.1517843,8.43335718 53.1517843,10.2918035 C53.1517843,12.1031363 52.1378103,12.9569779 51.1152007,13.7651556 C50.8014373,14.0833529 50.4344204,14.4283687 50.4344204,14.9618384 C50.4344204,15.5032812 50.8014373,15.7968346 51.0655455,16.0157311 L51.9427877,16.6977896 C53.0092954,17.6045433 53.9815302,18.4359153 53.9815302,20.124753 C53.9815302,22.4253414 51.7707935,24.7455 47.5932784,24.7455 C44.0742346,24.7455 42.3730037,23.0573871 42.3730037,21.2475039 C42.3730037,20.3668439 42.8083864,19.1194235 44.2447895,18.2648571 C45.7502782,17.3378084 47.7897403,17.2138637 48.8821551,17.1413813 C48.5410454,16.6977896 48.1517197,16.2331781 48.1517197,15.4750131 C48.1517197,15.0604144 48.2754979,14.8132497 48.3949583,14.5218708 C48.1294108,14.5472396 47.8617044,14.5733333 47.6184658,14.5733333 C45.0428712,14.5733333 43.5870378,12.6380557 43.5870378,10.7310463 C43.5870378,9.60612088 44.0965435,8.35797558 45.1429013,7.45339641 C46.5274903,6.30527669 48.1783464,6.1074 49.4902516,6.1074 L54.4946341,6.1074 L52.9387706,6.99168413 L51.4304034,6.99168413 L51.4304034,6.99168413 Z M49.7218851,17.8222645 C49.5209308,17.7957 49.4005033,17.7957 49.1581974,17.7957 C48.9362046,17.7957 47.6136787,17.8444016 46.5893197,18.1941674 C46.047396,18.3956148 44.4811133,18.9911023 44.4811133,20.7598549 C44.4811133,22.524918 46.1721763,23.7978 48.7882094,23.7978 C51.1387217,23.7978 52.3865245,22.6518372 52.3865245,21.1088828 C52.3865245,19.8389524 51.57908,19.1689368 49.7218851,17.8222645 L49.7218851,17.8222645 Z M50.4086132,13.1114594 C50.9675273,12.5485675 51.0162532,11.7710686 51.0162532,11.3295706 C51.0162532,9.57586245 49.9793957,6.8445 47.9694544,6.8445 C47.3424673,6.8445 46.6631716,7.16171379 46.2776641,7.65234741 C45.8685103,8.16032302 45.7459791,8.8193184 45.7459791,9.45302339 C45.7459791,11.0860602 46.6904008,13.7943 48.7676985,13.7943 C49.3739054,13.7943 50.0259719,13.4973185 50.4086132,13.1114594 L50.4086132,13.1114594 Z" id="Fill-3"></path>
                            <path d="M36.294993,17.5851 C32.4265717,17.5851 30.3567788,14.5365285 30.3567788,11.7762466 C30.3567788,8.55105205 32.9588041,5.7915 36.6599112,5.7915 C40.2376961,5.7915 42.4784092,8.62622631 42.4784092,11.602543 C42.4784092,14.5095241 40.2636586,17.5851 36.294993,17.5851 L36.294993,17.5851 Z M39.3202972,15.5912861 C39.9107994,14.8008079 40.0540831,13.814174 40.0540831,12.8524255 C40.0540831,10.6771466 39.029388,6.5286 36.0008929,6.5286 C35.1954652,6.5286 34.3842482,6.84698705 33.7995352,7.36665327 C32.8457582,8.23105581 32.6756994,9.31723139 32.6756994,10.3829131 C32.6756994,12.8231485 33.8682824,16.848 36.8280303,16.848 C37.7832545,16.848 38.7580174,16.3803004 39.3202972,15.5912861 L39.3202972,15.5912861 Z" id="Fill-4"></path>
                            <path d="M23.3297069,17.5851 C19.4589524,17.5851 17.3919045,14.5365285 17.3919045,11.7762466 C17.3919045,8.55105205 19.9957355,5.7915 23.6969416,5.7915 C27.2740527,5.7915 29.5135349,8.62622631 29.5135349,11.602543 C29.5135349,14.5095241 27.3007475,17.5851 23.3297069,17.5851 L23.3297069,17.5851 Z M26.3565109,15.5912861 C26.9429588,14.8008079 27.0892088,13.814174 27.0892088,12.8524255 C27.0892088,10.6771466 26.0611149,6.5286 23.03403,6.5286 C22.2253111,6.5286 21.4223842,6.84698705 20.8359363,7.36665327 C19.8802434,8.23105581 19.7108251,9.31723139 19.7108251,10.3829131 C19.7108251,12.8231485 20.9090613,16.848 23.8651932,16.848 C24.8187141,16.848 25.7925073,16.3803004 26.3565109,15.5912861 L26.3565109,15.5912861 Z" id="Fill-5"></path>
                            <path d="M15.7871044,16.8564671 L12.5104673,17.6108856 C11.1828643,17.8213364 9.99070141,18.0063 8.7282835,18.0063 C2.40822692,18.0063 0,13.3290505 0,9.66837272 C0,5.19793293 3.4120773,1.053 9.25555845,1.053 C10.4919023,1.053 11.6811681,1.23577902 12.7646891,1.53288595 C14.4819541,2.01786931 15.2851792,2.61572419 15.7871044,2.96598995 L13.8836998,4.78358528 L13.0811989,4.96417969 L13.6533792,4.04737179 C12.8784009,3.28639939 11.4537445,1.88169531 8.75001187,1.88169531 C5.13513651,1.88169531 2.40822692,4.64449846 2.40822692,8.67801629 C2.40822692,13.0100975 5.52190137,17.0851229 10.5158035,17.0851229 C11.9831923,17.0851229 12.7386151,16.7887442 13.4245071,16.5120269 L13.4245071,12.7981903 L9.96462737,12.9853386 L11.7985012,11.9949821 L16.6540661,11.9949821 L16.0601575,12.5695345 C15.9000919,12.7064367 15.8783636,12.7530417 15.8334583,12.9365489 C15.8095571,13.1462715 15.7871044,13.8133057 15.7871044,14.0477871 L15.7871044,16.8564671" id="Fill-6"></path>
                            <path d="M77.1254454,15.6833582 L77.1254454,21.9024 L75.8919469,21.9024 L75.8919469,6.07730821 L77.1254454,6.07730821 L77.1254454,7.87970881 C77.9289899,6.71476904 79.3973373,5.7915 81.1027014,5.7915 C84.1615176,5.7915 86.2216841,8.11486746 86.2216841,11.7927487 C86.2216841,15.4460288 84.1615176,17.8178751 81.1027014,17.8178751 C79.492722,17.8178751 78.0503887,16.9864989 77.1254454,15.6833582 L77.1254454,15.6833582 Z M84.9568183,11.8875665 C84.9568183,9.08635466 83.5083702,6.9498 80.9400403,6.9498 C79.3450791,6.9498 77.8197479,8.21330666 77.1568127,9.315219 L77.1568127,14.4343221 C77.8197479,15.538428 79.3450791,16.848 80.9400403,16.848 C83.5083702,16.848 84.9568183,14.6931654 84.9568183,11.8875665 L84.9568183,11.8875665 Z" id="Fill-7"></path>
                            <path d="M87.9081718,1.6848 L89.1730376,1.6848 L89.1730376,17.5851 L87.9081718,17.5851 L87.9081718,1.6848 Z" id="Fill-8"></path>
                            <path d="M102.924582,20.8073954 C103.188353,20.925363 103.638572,20.9977358 103.924024,20.9977358 C104.678483,20.9977358 105.203859,20.6887041 105.675758,19.5973229 L106.575472,17.5556873 L101.71629,6.0021 L103.092239,6.0021 L107.260556,16.0141476 L111.388404,6.0021 L112.783866,6.0021 L106.857311,19.9801748 C106.242325,21.4203927 105.27468,22.113 103.945704,22.113 C103.546794,22.113 103.020696,22.0420747 102.712841,21.9472664 L102.924582,20.8073954" id="Fill-9"></path>
                            <path d="M99.4434842,17.5694116 C99.3606322,17.1699507 99.2981297,16.8177848 99.252343,16.5238282 C99.2145508,16.2305991 99.1927477,15.9308216 99.1927477,15.6259507 C98.7675857,16.2509724 98.1650911,16.7712174 97.3954388,17.1808649 C96.6250598,17.5934229 95.8931997,17.7957 94.8895267,17.7957 C93.6809037,17.7957 92.7426402,17.4981053 92.0732826,16.8941844 C91.4061053,16.2909912 91.0703363,15.473879 91.0703363,14.4399375 C91.0703363,13.4074511 91.5565472,12.5692381 92.5260619,11.9282089 C93.4955767,11.2842692 94.7485328,10.9641184 96.2994657,10.9641184 L99.1927477,10.9641184 L99.1927477,9.53289874 C99.1927477,8.70851041 98.9122134,8.06020503 98.3518717,7.59016544 C97.7893496,7.11939823 97.0000745,6.88146797 95.9767786,6.88146797 C95.0414222,6.88146797 94.2826715,7.099025 93.7048872,7.5224972 C93.1321903,7.95470079 92.8436616,8.49022577 92.8436616,9.13562069 L91.5739897,9.13562069 L91.5478259,9.07377338 C91.5020392,8.20354528 91.8995839,7.44027665 92.7448205,6.78105704 C93.5864233,6.12256504 94.6889374,5.7915 96.045822,5.7915 C97.3983459,5.7915 98.4928656,6.11747173 99.3177526,6.76795996 C100.141913,7.41189965 100.555446,8.34251983 100.555446,9.5590929 L100.555446,15.2417697 C100.555446,15.649962 100.575069,16.0443296 100.625943,16.4285105 C100.678271,16.8134191 100.76185,17.1976001 100.873046,17.5694116 L99.4434842,17.5694116 L99.4434842,17.5694116 Z M95.0387789,16.7427 C96.0916991,16.7427 96.8483494,16.5057384 97.6217011,16.0369348 C98.3899698,15.5710567 98.9127991,14.9632942 99.1865584,14.2275431 L99.1865584,12.0042 L96.2819509,12.0042 C95.1723909,12.0042 94.2538087,12.2514006 93.5312876,12.7501901 C92.8073142,13.2475169 92.4406075,13.8494285 92.4406075,14.5493428 C92.4406075,15.2097634 92.6729761,15.7378074 93.1348087,16.1378629 C93.5980936,16.5423066 94.231298,16.7427 95.0387789,16.7427 L95.0387789,16.7427 Z" id="Fill-10"></path>
                        </g>
                        <g id="Get-it-on" transform="translate(36.154080, 8.424000)" fill="#FFFFFF" sketch:type="MSShapeGroup">
                            <path d="M0.00447668069,3.71824905 C0.00447668069,1.45008009 1.81753236,-0.00894440154 4.07205294,-0.00894440154 C5.58305369,-0.00894440154 6.57126706,0.661181092 7.18699442,1.48179801 L6.08333217,2.07634037 C5.66510227,1.53578597 4.93247384,1.11535476 4.07205294,1.11535476 C2.53854329,1.11535476 1.39930246,2.19511387 1.39930246,3.71824905 C1.39930246,5.21911421 2.53854329,6.32114334 4.07205294,6.32114334 C4.86276886,6.32114334 5.5598187,5.98641802 5.90834362,5.67328788 L5.90834362,4.56046115 L3.58411805,4.56046115 L3.58411805,3.44763443 L7.25669941,3.44763443 L7.25669941,6.1375843 C6.50156208,6.92648329 5.40879123,7.45556525 4.07205294,7.45556525 C1.81753236,7.45556525 0.00447668069,5.97629528 0.00447668069,3.71824905" id="Fill-1"></path>
                            <path d="M9.01481401,7.34579305 L9.01481401,0.100827799 L14.39904,0.100827799 L14.39904,1.22044873 L10.3934408,1.22044873 L10.3934408,3.08784073 L14.3166021,3.08784073 L14.3166021,4.2067831 L10.3934408,4.2067831 L10.3934408,6.22685068 L14.39904,6.22685068 L14.39904,7.34579305 L9.01481401,7.34579305" id="Fill-2"></path>
                            <path d="M18.0606763,7.34579305 L18.0606763,1.22044873 L15.7176259,1.22044873 L15.7176259,0.100827799 L21.7611449,0.100827799 L21.7611449,1.22044873 L19.4180945,1.22044873 L19.4180945,7.34579305 L18.0606763,7.34579305" id="Fill-3"></path>
                            <path d="M26.59596,0.100827799 L27.914546,0.100827799 L27.914546,7.34579305 L26.59596,7.34579305 L26.59596,0.100827799 Z" id="Fill-4"></path>
                            <path d="M31.6867891,7.34579305 L31.6867891,1.22044873 L29.3430141,1.22044873 L29.3430141,0.100827799 L35.386533,0.100827799 L35.386533,1.22044873 L33.0442074,1.22044873 L33.0442074,7.34579305 L31.6867891,7.34579305" id="Fill-5"></path>
                            <path d="M39.8917017,3.72364834 C39.8917017,1.57046339 41.5500597,-0.00894440154 43.902768,-0.00894440154 C46.2422505,-0.00894440154 47.9130995,1.57046339 47.9130995,3.72364834 C47.9130995,5.87615746 46.2422505,7.45556525 43.902768,7.45556525 C41.5500597,7.45556525 39.8917017,5.87615746 39.8917017,3.72364834 L39.8917017,3.72364834 Z M46.4846314,3.66842432 C46.4846314,2.19099638 45.4685282,1.08877761 43.9027656,1.08877761 C42.3253237,1.08877761 41.3201698,2.19099638 41.3201698,3.66842432 C41.3201698,5.1344823 42.3253237,6.24807104 43.9027656,6.24807104 C45.4685282,6.24807104 46.4846314,5.1344823 46.4846314,3.66842432 L46.4846314,3.66842432 Z" id="Fill-6"></path>
                            <path d="M54.8436925,7.34579305 L50.8076608,2.16500166 L50.8076608,7.34579305 L49.4514498,7.34579305 L49.4514498,0.100827799 L50.8431599,0.100827799 L54.7973263,5.1194438 L54.7973263,0.100827799 L56.1542617,0.100827799 L56.1542617,7.34579305 L54.8436925,7.34579305" id="Fill-7"></path>
                        </g>
                    </g>
                </g>
            </g>
        </g>
    </g>
</svg>