<?xml version="1.0" encoding="UTF-8" standalone="no"?>
<svg width="151px" height="46px" viewBox="0 0 151 46" version="1.1" xmlns="http://www.w3.org/2000/svg" xmlns:xlink="http://www.w3.org/1999/xlink" xmlns:sketch="http://www.bohemiancoding.com/sketch/ns">
    <!-- Generator: Sketch 3.2.2 (9983) - http://www.bohemiancoding.com/sketch -->
    <title>Logo + icon_31792</title>
    <desc>Created with Sketch.</desc>
    <defs></defs>
    <g id="Page-2" stroke="none" stroke-width="1" fill="none" fill-rule="evenodd" sketch:type="MSPage">
        <g id="Landing-Page" sketch:type="MSArtboardGroup" transform="translate(-150.000000, -20.000000)" fill="#FF5959">
            <g id="Nav" sketch:type="MSLayerGroup" transform="translate(0.000000, 3.000000)">
                <g id="Logo-+-icon_31792">
                    <g transform="translate(150.000000, 17.000000)">
                        <g id="Logo" transform="translate(66.000000, 8.000000)" font-size="25" font-family="Proxima Nova" sketch:type="MSTextLayer" font-weight="260">
                            <text id="Paralign">
                                <tspan x="0" y="25">Paralign</tspan>
                            </text>
                        </g>
                        <g id="icon_31792" sketch:type="MSShapeGroup">
                            <g id="Group">
                                <path d="M21.3516,26.36544 C21.3516,27.0408 20.80448,27.5924 20.12856,27.5924 C19.45488,27.5924 18.9072,27.0408 18.9072,26.36544 C18.9072,25.69064 19.45488,25.14352 20.12856,25.14352 C20.80504,25.14352 21.3516,25.69064 21.3516,26.36544 L21.3516,26.36544 Z" id="Shape"></path>
                                <path d="M25.83552,37.01384 C25.83552,37.41032 25.33376,37.7284 24.70936,37.7284 C24.0844,37.7284 23.57648,37.41032 23.57648,37.01384 C23.57648,36.62352 24.0844,36.86376 24.70936,36.86376 C25.33376,36.86432 25.83552,36.62352 25.83552,37.01384 L25.83552,37.01384 Z" id="Shape"></path>
                                <path d="M27.04176,32.20064 C27.04176,32.8032 26.06512,33.52224 24.86,33.52224 C23.64984,33.52224 22.6732,32.8032 22.6732,32.20064 C22.6732,31.59248 23.64984,32.23928 24.86,32.23928 C26.06456,32.23928 27.04176,31.59248 27.04176,32.20064 L27.04176,32.20064 Z" id="Shape"></path>
                                <path d="M30.4488,26.36544 C30.4488,27.0408 29.90224,27.5924 29.22744,27.5924 C28.55264,27.5924 28.00552,27.0408 28.00552,26.36544 C28.00552,25.69064 28.55264,25.14352 29.22744,25.14352 C29.90224,25.14352 30.4488,25.69064 30.4488,26.36544 L30.4488,26.36544 Z" id="Shape"></path>
                                <path d="M25.22232,0.8496 C11.30408,0.8496 0.01952,12.13472 0.01952,26.0524 C0.01952,33.66728 3.39408,40.49536 8.73256,45.11368 L17.19024,41.91216 C22.82384,44.66176 27.95008,41.09176 27.95008,41.09176 C28.95472,40.36656 29.48448,39.56856 29.75776,38.92736 C28.30232,40.07704 26.60664,40.66224 24.68192,40.66224 C20.19744,40.66224 16.89512,37.45456 15.14344,31.39704 C14.96928,30.76648 14.81472,30.14768 14.66856,29.55576 C12.63296,28.79192 12.26504,25.98632 12.20344,25.12728 C12.19168,25.03768 12.148,24.66416 12.30424,24.30688 C12.47728,23.92216 12.88384,23.55928 13.82744,23.60408 C13.77088,22.80048 13.77088,22.34352 13.77088,22.34352 C13.73224,21.53432 13.72104,20.86456 13.72104,20.39136 C13.72104,14.34448 18.64008,9.42936 24.68192,9.42936 C27.59952,9.42936 30.35472,10.58968 32.43624,12.68688 C34.50544,14.77344 35.64952,17.5068 35.64952,20.39136 C35.64952,20.86512 35.63272,21.53432 35.60472,22.34352 C35.60472,22.34352 35.58232,22.86768 35.52576,23.70432 L35.53752,23.60408 C37.3508,23.51448 37.1884,24.92624 37.16152,25.12112 C37.16152,25.12728 37.1548,25.13288 37.16152,25.13792 C37.0932,26.00872 36.73088,28.76392 34.72888,29.53896 C34.58328,30.18576 34.4164,30.81072 34.22656,31.39648 C33.24992,34.76544 31.79392,37.25352 29.92016,38.79912 C30.42808,41.52128 31.42096,41.61088 31.42096,41.61088 L41.13304,45.30408 C41.13304,45.30408 41.22824,45.32592 41.39064,45.38192 C46.9128,40.76304 50.4212,33.81848 50.4212,26.0524 C50.42008,12.13472 39.14112,0.8496 25.22232,0.8496 L25.22232,0.8496 Z" id="Shape"></path>
                                <path d="M30.4488,26.36544 C30.4488,27.0408 29.90224,27.5924 29.22744,27.5924 C28.55264,27.5924 28.00552,27.0408 28.00552,26.36544 C28.00552,25.69064 28.55264,25.14352 29.22744,25.14352 C29.90224,25.14352 30.4488,25.69064 30.4488,26.36544 L30.4488,26.36544 Z" id="Shape"></path>
                                <path d="M21.3516,26.36544 C21.3516,27.0408 20.80448,27.5924 20.12856,27.5924 C19.45488,27.5924 18.9072,27.0408 18.9072,26.36544 C18.9072,25.69064 19.45488,25.14352 20.12856,25.14352 C20.80504,25.14352 21.3516,25.69064 21.3516,26.36544 L21.3516,26.36544 Z" id="Shape"></path>
                                <path d="M27.04176,32.20064 C27.04176,32.8032 26.06512,33.52224 24.86,33.52224 C23.64984,33.52224 22.6732,32.8032 22.6732,32.20064 C22.6732,31.59248 23.64984,32.23928 24.86,32.23928 C26.06456,32.23928 27.04176,31.59248 27.04176,32.20064 L27.04176,32.20064 Z" id="Shape"></path>
                                <path d="M25.83552,37.01384 C25.83552,37.41032 25.33376,37.7284 24.70936,37.7284 C24.0844,37.7284 23.57648,37.41032 23.57648,37.01384 C23.57648,36.62352 24.0844,36.86376 24.70936,36.86376 C25.33376,36.86432 25.83552,36.62352 25.83552,37.01384 L25.83552,37.01384 Z" id="Shape"></path>
                                <path d="M27.71712,34.87968 C27.71712,35.43184 26.3608,35.81096 24.69312,35.81096 C23.03104,35.81096 21.68088,35.43184 21.68088,34.87968 C21.68088,34.32192 23.03104,34.83992 24.69312,34.83992 C26.3608,34.83936 27.71712,34.32192 27.71712,34.87968 L27.71712,34.87968 Z" id="Shape"></path>
                                <path d="M32.854,17.64568 C32.65352,19.84984 29.96944,21.0656 24.77544,21.0656 C19.5764,21.0656 16.894,19.84928 16.69296,17.64568 C16.292,13.2844 19.5764,11.05224 24.776,11.05224 C29.96944,11.05224 33.25552,13.2844 32.854,17.64568 L32.854,17.64568 Z M22.43072,15.5832 C22.41896,15.57256 22.40832,15.57256 22.38592,15.57256 C22.35848,15.57256 22.32992,15.57816 22.29128,15.5944 C22.30304,15.4712 22.30304,15.39896 22.30304,15.39896 C22.30864,15.31608 22.30864,15.24272 22.30864,15.19232 C22.30864,14.55112 21.78952,14.03256 21.14776,14.03256 C20.84144,14.03256 20.54632,14.15576 20.32848,14.37864 C20.1056,14.59648 19.988,14.886 19.988,15.19232 C19.988,15.24272 19.988,15.31608 19.9936,15.39896 C19.9936,15.39896 19.9936,15.47736 20.00536,15.5944 C19.96616,15.57816 19.93872,15.57256 19.91016,15.57256 C19.89392,15.57256 19.87656,15.57256 19.86536,15.5832 C19.83288,15.60056 19.82728,15.6392 19.82728,15.6672 C19.82728,15.67336 19.83344,16.06312 20.08376,16.16392 C20.1,16.23056 20.11736,16.29776 20.13864,16.3588 C20.18344,16.51504 20.24056,16.64944 20.3016,16.76704 L20.3016,16.77208 C20.38504,16.92384 20.47408,17.04536 20.58552,17.12992 C20.74176,17.2688 20.93048,17.3416 21.14888,17.3416 C21.36112,17.3416 21.5504,17.27496 21.70664,17.13552 C21.81864,17.04592 21.91888,16.92384 22.00232,16.7676 C22.00232,16.7676 22.00232,16.7676 22.00232,16.76144 C22.06448,16.64496 22.12048,16.51056 22.16416,16.35936 C22.1804,16.29328 22.19776,16.23112 22.20896,16.16448 C22.46544,16.06928 22.47104,15.67392 22.47104,15.66776 C22.46936,15.63864 22.46432,15.60056 22.43072,15.5832 L22.43072,15.5832 Z M21.90096,17.40152 C21.63272,17.61992 21.34936,17.66976 21.1472,17.66976 C20.94728,17.66976 20.66224,17.61992 20.39512,17.40152 L19.40728,17.7756 C19.40728,17.7756 18.70392,17.95424 18.70392,18.96448 L18.70392,19.394 C18.70392,19.394 18.90552,19.62248 20.18736,19.82856 C20.3492,18.37256 21.8556,17.97664 22.02808,17.9268 L22.65864,17.68712 L21.90096,17.40152 L21.90096,17.40152 Z M27.26688,18.23312 L26.3132,17.87024 L25.95088,17.73696 L25.7896,17.67592 L25.75096,17.65912 C25.75096,17.65912 25.7392,17.65912 25.72184,17.64736 C25.71064,17.64232 25.6888,17.63112 25.66584,17.60312 C25.32032,17.86016 24.95856,17.9212 24.70096,17.9212 C24.0424,17.9212 23.446,17.73696 23.446,17.73696 L23.08984,17.87024 L22.13504,18.23312 C22.13504,18.23312 21.10296,18.50136 21.10296,19.97864 C21.10296,19.97864 21.10856,19.97864 21.12536,19.98424 C21.15896,19.99096 21.23176,20.00104 21.34264,20.0184 C21.4104,20.024 21.4832,20.0352 21.57168,20.0464 C21.72792,20.0688 21.92336,20.0968 22.14624,20.11864 C22.16864,20.1248 22.19608,20.1248 22.22352,20.1304 C22.30304,20.1416 22.39208,20.14664 22.47552,20.1584 C22.648,20.1752 22.83728,20.192 23.02768,20.20824 C23.12792,20.2144 23.22816,20.2256 23.32784,20.2312 C23.46896,20.2424 23.61344,20.24744 23.76296,20.25864 C23.9528,20.26424 24.1432,20.276 24.33808,20.276 C24.46016,20.28104 24.57832,20.28104 24.69984,20.28104 C24.82248,20.28104 24.94512,20.28104 25.06272,20.276 C25.2576,20.276 25.448,20.26424 25.63168,20.25864 C25.78288,20.24744 25.9324,20.2424 26.07744,20.2312 C26.17768,20.2256 26.27792,20.2144 26.37368,20.20824 C26.56856,20.192 26.75224,20.1752 26.92528,20.1584 C27.00872,20.14664 27.09944,20.1416 27.17672,20.1304 C27.20416,20.1248 27.23216,20.1248 27.254,20.11864 L27.26072,20.11864 L27.26576,20.11864 C27.3772,20.10184 27.4836,20.09064 27.5844,20.08 C27.60064,20.0744 27.61744,20.0744 27.63424,20.0744 C27.70144,20.06264 27.76808,20.052 27.82352,20.0464 C28.00272,20.024 28.136,20.0016 28.21384,19.99096 C28.2424,19.99096 28.2592,19.98424 28.27544,19.98424 C28.2872,19.97864 28.2928,19.97864 28.2928,19.97864 C28.29448,18.50136 27.26688,18.23312 27.26688,18.23312 L27.26688,18.23312 Z M29.99464,17.7756 L29.00736,17.40152 C28.73912,17.61992 28.4552,17.66976 28.25416,17.66976 C28.05312,17.66976 27.76304,17.61992 27.49536,17.40152 L26.73712,17.68712 L27.36824,17.9268 C27.54576,17.9772 28.99672,18.46216 29.05216,19.86216 C30.33512,19.65048 30.6924,19.394 30.6924,19.394 L30.6924,18.96448 C30.69184,17.95424 29.99464,17.7756 29.99464,17.7756 L29.99464,17.7756 Z M29.53824,15.5832 C29.52648,15.57256 29.50968,15.57256 29.48784,15.57256 C29.46488,15.57256 29.43128,15.57816 29.39824,15.5944 C29.41,15.47736 29.41,15.39896 29.41,15.39896 C29.4156,15.31608 29.4156,15.24272 29.4156,15.19232 C29.4156,14.886 29.2924,14.59648 29.07568,14.37864 C28.85224,14.15576 28.56216,14.03256 28.25528,14.03256 C27.61352,14.03256 27.08936,14.55168 27.08936,15.19232 C27.08936,15.24272 27.08936,15.31608 27.09552,15.39896 C27.09552,15.39896 27.09552,15.4712 27.10672,15.5944 C27.07312,15.57816 27.04008,15.57256 27.01656,15.57256 C26.99528,15.57256 26.97904,15.57256 26.96728,15.5832 C26.93312,15.60056 26.92808,15.6392 26.92808,15.6672 C26.92808,15.67336 26.93984,16.06872 27.19128,16.16392 C27.20696,16.23056 27.22544,16.29216 27.24056,16.3588 C27.28536,16.51 27.33576,16.63768 27.4024,16.75528 C27.4808,16.91712 27.58048,17.04536 27.6936,17.13496 C27.84816,17.2744 28.03856,17.34104 28.2564,17.34104 C28.46808,17.34104 28.65904,17.2744 28.81472,17.13496 C28.9256,17.04536 29.0264,16.91712 29.10424,16.75528 C29.17144,16.63768 29.22184,16.51 29.26608,16.3588 C29.28848,16.29832 29.30528,16.23056 29.32208,16.16392 C29.57352,16.06312 29.57856,15.67336 29.57856,15.6672 C29.57632,15.63864 29.57128,15.60056 29.53824,15.5832 L29.53824,15.5832 Z M26.59208,15.00864 C26.5764,14.99744 26.55344,14.9924 26.51984,14.9924 C26.48624,14.9924 26.44144,14.998 26.38656,15.026 C26.40224,14.85296 26.40224,14.74152 26.40224,14.74152 C26.4084,14.61328 26.41344,14.51248 26.41344,14.43464 C26.41344,13.98776 26.23536,13.55824 25.91168,13.23456 C25.588,12.90584 25.15792,12.72664 24.70096,12.72664 C23.75848,12.72664 22.9952,13.49104 22.9952,14.43464 C22.9952,14.51248 22.9952,14.61272 22.99968,14.74152 C22.99968,14.74152 22.99968,14.8468 23.01592,15.026 C22.96048,14.998 22.91568,14.9924 22.88264,14.9924 C22.8496,14.9924 22.82664,14.998 22.80984,15.00864 C22.76056,15.03048 22.75384,15.09208 22.75384,15.13688 C22.75384,15.14192 22.76504,15.72264 23.13912,15.86768 C23.16096,15.95672 23.18336,16.05136 23.2108,16.15216 C23.24496,16.26976 23.28416,16.38008 23.32784,16.48704 C23.36256,16.57608 23.4012,16.65448 23.43928,16.73232 C23.49024,16.82136 23.53448,16.90536 23.59104,16.9776 C23.61848,17.0168 23.64704,17.06104 23.68008,17.09464 C23.74168,17.17304 23.80272,17.23408 23.86992,17.29512 C23.94272,17.35616 24.02056,17.41272 24.10344,17.4508 C24.21544,17.5124 24.32632,17.5516 24.45008,17.574 C24.47192,17.58016 24.48928,17.58016 24.51056,17.5852 C24.57272,17.5908 24.6332,17.59696 24.7004,17.59696 C24.7676,17.59696 24.82864,17.59024 24.89024,17.5852 C24.9132,17.58016 24.92888,17.58016 24.95184,17.574 C25.09128,17.54656 25.22008,17.4956 25.3416,17.42336 C25.40936,17.38416 25.46984,17.33992 25.53144,17.29008 C25.57064,17.25536 25.60984,17.21672 25.64904,17.17808 C25.67704,17.15008 25.69944,17.12152 25.72072,17.09464 C25.75488,17.06104 25.78288,17.0168 25.81032,16.9776 C25.86576,16.9048 25.91112,16.82136 25.96208,16.73232 C26.00016,16.65392 26.03936,16.57608 26.07296,16.48704 C26.11832,16.38064 26.1564,16.26976 26.18944,16.15216 C26.21856,16.06312 26.24656,15.96288 26.26784,15.86152 C26.63632,15.71704 26.64752,15.14192 26.64752,15.13688 C26.64752,15.09264 26.63688,15.03048 26.59208,15.00864 L26.59208,15.00864 Z" id="Shape"></path>
                            </g>
                        </g>
                    </g>
                </g>
            </g>
        </g>
    </g>
</svg>